<?xml version="1.0" encoding="UTF-8" standalone="no"?>
<svg
   version="1.0"
   width="600.000000pt"
   height="600.000000pt"
   viewBox="0 0 600.000000 600.000000"
   preserveAspectRatio="xMidYMid meet"
   id="svg83"
   sodipodi:docname="blackjackIcon.svg"
   inkscape:version="1.1.2 (0a00cf5339, 2022-02-04)"
   xmlns:inkscape="http://www.inkscape.org/namespaces/inkscape"
   xmlns:sodipodi="http://sodipodi.sourceforge.net/DTD/sodipodi-0.dtd"
   xmlns="http://www.w3.org/2000/svg"
   xmlns:svg="http://www.w3.org/2000/svg">
  <defs
     id="defs87" />
  <sodipodi:namedview
     id="namedview85"
     pagecolor="#505050"
     bordercolor="#eeeeee"
     borderopacity="1"
     inkscape:pageshadow="0"
     inkscape:pageopacity="0"
     inkscape:pagecheckerboard="0"
     inkscape:document-units="pt"
     showgrid="false"
     inkscape:zoom="1.0475"
     inkscape:cx="375.179"
     inkscape:cy="400"
     inkscape:window-width="1920"
     inkscape:window-height="1048"
     inkscape:window-x="0"
     inkscape:window-y="0"
     inkscape:window-maximized="1"
     inkscape:current-layer="svg83" />
  <rect
     style="fill:#ffffff;stroke-width:0.75"
     id="rect1010"
     width="553.89264"
     height="553.89264"
     x="25.733353"
     y="21.358238"
     ry="49.644962" />
  <g
     transform="matrix(0.1,0,0,-0.1,-8.3203278,601.19733)"
     fill="#000000"
     stroke="none"
     id="g81">
    <path
       d="m 3275,5216 -350,-72 -200,18 c -225,21 -294,19 -351,-10 -45,-23 -95,-73 -117,-117 l -15,-30 -414,-84 c -513,-103 -564,-115 -609,-147 -70,-48 -109,-125 -109,-213 0,-25 31,-198 70,-386 38,-187 103,-506 144,-710 41,-203 102,-504 135,-667 34,-164 88,-432 122,-596 33,-163 94,-463 135,-667 108,-539 121,-593 149,-641 43,-73 131,-124 214,-124 19,0 270,48 556,106 l 520,106 700,-61 c 675,-59 702,-61 753,-46 34,10 70,31 97,56 83,76 79,56 140,745 188,2132 265,3014 265,3049 0,86 -81,199 -165,230 -32,12 -884,95 -974,95 -14,0 -22,10 -26,33 -19,83 -97,173 -173,195 -68,21 -139,12 -497,-62 z m 500,-29 c 43,-24 85,-78 85,-110 0,-16 -5,-18 -32,-14 -18,3 -158,16 -310,29 -153,12 -278,25 -278,28 0,9 393,87 445,89 35,0 62,-6 90,-22 z m -86,-192 c 1276,-112 1247,-108 1296,-167 53,-62 56,-1 -70,-1423 -64,-726 -136,-1546 -160,-1822 -50,-560 -49,-559 -126,-610 -34,-22 -51,-27 -102,-26 -103,2 -2359,202 -2399,213 -44,12 -93,52 -113,91 -21,39 -19,108 10,428 49,548 86,975 180,2041 122,1386 107,1253 138,1299 26,38 94,81 131,81 11,0 558,-47 1215,-105 z M 2225,4868 c -3,-29 -75,-839 -159,-1800 -121,-1370 -152,-1756 -145,-1790 22,-97 97,-175 190,-197 24,-6 201,-25 394,-41 192,-17 350,-32 352,-33 1,-2 -173,-38 -387,-82 -356,-72 -393,-77 -430,-66 -48,14 -103,60 -119,98 -6,16 -119,561 -251,1213 -133,652 -295,1450 -360,1773 -66,324 -120,605 -120,625 0,47 27,99 71,134 31,25 80,37 494,122 253,52 464,95 468,95 5,1 6,-23 2,-51 z"
       id="path65" />
    <path
       d="m 2582,4893 c -6,-21 -34,-122 -63,-225 -48,-172 -54,-188 -75,-188 -16,0 -23,-7 -26,-30 -5,-32 4,-37 92,-42 44,-3 45,-2 48,30 2,24 -1,32 -12,32 -19,0 -19,1 -7,32 8,21 14,23 60,20 49,-4 51,-5 51,-33 0,-19 -5,-29 -15,-29 -10,0 -15,-10 -15,-29 0,-24 5,-29 31,-35 17,-3 48,-6 69,-6 34,0 38,3 42,30 4,26 1,30 -18,30 -26,0 -26,0 -49,260 -21,232 -17,220 -64,220 -35,0 -39,-3 -49,-37 z m 52,-209 c 4,-53 5,-98 3,-101 -3,-2 -20,-1 -39,2 l -34,7 25,94 c 14,52 29,94 32,94 4,0 9,-43 13,-96 z"
       id="path67" />
    <path
       d="m 2492,4230 c -129,-94 -154,-160 -88,-226 36,-36 78,-44 117,-24 42,23 10,-63 -37,-98 l -27,-19 72,-7 c 40,-4 80,-10 90,-13 9,-4 4,5 -12,20 -30,29 -47,66 -47,102 v 23 l 37,-19 c 43,-22 77,-17 115,19 37,34 45,80 21,125 -14,28 -147,177 -157,177 -1,0 -39,-27 -84,-60 z"
       id="path69" />
    <path
       d="m 3380,3482 c -191,-137 -314,-251 -348,-323 -27,-56 -29,-154 -5,-225 22,-66 101,-145 167,-167 86,-30 167,-19 233,29 17,13 35,24 38,24 11,0 -5,-90 -27,-147 -25,-68 -101,-151 -175,-191 l -58,-31 125,-1 c 111,0 268,-17 346,-36 23,-6 17,3 -37,57 -88,86 -111,138 -117,258 l -5,94 37,-36 c 48,-48 87,-68 150,-74 197,-20 362,182 301,369 -28,88 -101,183 -273,360 -91,92 -167,168 -171,167 -3,-1 -85,-58 -181,-127 z"
       id="path71" />
    <path
       d="m 4423,2173 c 25,-27 53,-100 42,-111 -2,-2 -17,4 -34,12 -47,25 -79,20 -117,-18 -27,-27 -34,-42 -34,-72 0,-48 20,-80 101,-167 l 64,-69 80,60 c 91,67 109,85 125,126 14,38 -2,88 -37,116 -29,22 -92,27 -111,8 -16,-16 -21,-8 -15,26 3,16 23,46 44,67 l 39,39 h -62 c -35,0 -74,3 -88,7 l -25,6 z"
       id="path73" />
    <path
       d="m 4264,1651 c -2,-2 -4,-17 -4,-32 0,-21 5,-28 22,-31 22,-3 24,-10 46,-233 14,-147 27,-232 35,-237 6,-5 25,-7 41,-6 28,3 29,5 77,178 83,296 76,277 101,276 19,-1 24,5 26,32 3,31 2,32 -36,32 -22,0 -53,3 -69,6 -28,6 -31,3 -35,-25 -3,-21 0,-35 10,-40 9,-5 12,-15 7,-30 -7,-22 -43,-28 -92,-15 -27,7 -33,54 -8,54 10,0 15,10 15,34 v 34 l -66,4 c -36,1 -68,1 -70,-1 z m 190,-199 c 2,-4 -7,-50 -22,-102 -26,-94 -26,-94 -33,-55 -3,22 -9,68 -13,103 l -6,62 h 35 c 18,0 36,-4 39,-8 z"
       id="path75" />
    <path
       d="m 1582,4629 c -45,-9 -85,-19 -88,-22 -3,-3 -3,-20 1,-37 6,-28 10,-31 36,-28 32,5 27,20 70,-204 26,-134 22,-166 -24,-182 -41,-15 -79,9 -91,57 -8,29 -14,37 -32,37 -43,0 -52,-9 -44,-43 20,-86 70,-131 146,-129 58,0 100,28 126,82 l 22,45 -33,160 c -41,204 -41,199 -13,203 23,3 28,29 14,63 -6,14 -15,14 -90,-2 z"
       id="path77" />
    <path
       d="m 1581,3924 c -86,-110 -110,-175 -82,-228 15,-27 61,-56 91,-56 26,0 76,25 83,42 3,7 6,-8 6,-33 1,-34 -6,-56 -24,-83 -27,-40 -27,-40 12,-25 15,6 53,14 83,18 l 55,7 -32,17 c -34,18 -56,46 -68,84 -6,21 -4,22 25,12 62,-22 130,32 130,102 0,54 -46,103 -148,157 -43,23 -81,42 -83,41 -2,0 -24,-25 -48,-55 z"
       id="path79" />
  </g>
</svg>
